<?xml version="1.0" encoding="utf-8"?><svg xmlns="http://www.w3.org/2000/svg" width="128" height="128" viewBox="0 0 128 128"><path d="M9.19 23.436c-2.596 3.134-1.596 1.901-2.847 3.468-.851 1.089-2.513 3.407.991 1.068l1.994-1.316c6.869-4.721 9.303-6.377 11.993-8.456.54-.435 1.267-.876 1.921-.716.509.212.851 1.028.843 1.212-.013.277-.161.421-.313.657-.102.188-.305.471-.554.803-.302.38-.958 1.371-1.308 1.799-3.123 4.353-5.977 9.063-8.36 13.757-1.14 2.252-1.373 3.274-.683 2.604 1.234-1.197 2.467-2.393 3.656-3.635 7.432-7.828 15.217-14.055 23.356-18.686.531-.25 1.044-.13 1.307.321.263.45.004.967-.435 1.305-7.992 4.486-15.629 10.571-22.864 18.207-1.485 1.529-2.722 2.819-3.759 3.824-.983.865-1.723 1.583-2.311 2.066-.391.291-.683.485-.975.68-.382.105-.868.401-1.422.144-.276-.174-.452-.443-.485-.764.012-.277.066-.417.177-.79.165-.512.642-1.682 1.004-2.386 2.247-4.827 4.624-9.428 7.652-13.777 1.666-2.411.81-2.287-1.086-1.065-1.651 1.074-3.701 2.531-6.333 4.379l-6.284 4.331c-.925.633-1.653 1.074-2.139 1.368-.292.195-.484.294-.679.394-.099.095-.147.143-.242.147-.094.003-.143.051-.193.1-.24.054-.428.062-.568.021-.374-.079-.551-.349-.629-.714l.017-.368.107-.282c.004-.092.053-.14.156-.328l.56-.896c.456-.708 1.21-1.703 2.119-3.025 1.716-2.458 6.055-7.639 11.744-14.481l5.232-6.134c.398-.476.95-1.188 1.703-2.183 1.505-1.99 2.709-3.601 4.228-4.808.395-.383 1.008-.36 1.37-.005.312.403.238 1.006-.202 1.344-1.279 1.152-2.377 2.481-3.834 4.424-.703.948-1.304 1.707-1.801 2.277l-5.187 6.179-6.637 7.936zM45.378 23.888c-3.03 3.192-7.854 7.788-14.476 13.704-1.453 1.324-3.331 3.146-5.549 5.552-2.814 2.986-4.649 4.934-5.503 5.762-.342.332-.857.324-1.205-.017-.348-.341-.352-.845-.011-1.177.981-.953 2.773-2.86 5.462-5.721 2.472-2.654 4.351-4.56 5.676-5.676 6.066-5.376 10.806-9.889 14.303-13.538.299-.374.858-.408 1.249-.108.348.341.395.888.054 1.219zM40.992 43.644c-.173-.085-.304.296-.304.296-.926 3.609-2.153 6.324-4.695 12.095-.964 2.036-1.623 3.776-2.019 5.092-.353 1.103-2.092.588-1.739-.515.439-1.358 1.141-3.141 2.105-5.262 3.199-7 4.692-10.904 4.695-12.179 0-.085-.043-.128.001-.255-.35.254-1.046.677-1.527 1.143l-2.358 2.116c-.35.339-1.092.975-2.183 1.949-2.27 1.948-2.88 2.54-4.541 4.15-.829.805-1.572 1.61-2.183 2.289-.306.38-.872.421-1.22.08-.39-.298-.433-.851-.084-1.19.569-.719 1.313-1.525 2.185-2.372 1.704-1.652 2.402-2.329 4.671-4.277 1.091-.974 1.834-1.609 2.227-1.905 6.243-5.547 11.352-10.672 15.371-15.249.35-.425.439-.935.919-1.23l.305-.126c.174-.085.436-.084.653.044 4.258 2.562 5.989 6.051 5.413 9.575-.446 3.397-3.633 6.234-8.032 6.688-2.7.332-5.223-.015-7.527-.914l-.133-.043zm.703-1.613c.435.171.478.214.827.301 3.914 1.286 8.183.617 10.408-1.287 1.134-1.016 1.791-2.162 1.969-3.436.486-2.25-.464-4.717-2.766-6.636-.565-.469-1.217-.342-1.741.166-2.358 2.712-5.329 5.762-8.909 9.15-.656.636-.788 1.019-.571 1.23.347.341.783.512.783.512zM67.203 44.319c.993.988 3.208 3.251 3.566 3.58.359.328.38.835.048 1.183-.166.172-.336.263-.595.27-.261.008-.437-.072-.616-.237-.362-.328-2.617-2.548-3.654-3.575-.857-.864-1.579-1.521-2.114-1.929l-.494-.452c-.523-.07-1.077.157-1.077.157-.548.395-1.303 1.007-2.179 1.834-1.546 1.438-3.544 3.437-6.084 6l-.499.521c-.541.564-.518 1.156.109 1.646.761.613 1.571 1.352 1.796 1.557.401.285.468.833.179 1.221-.333.347-.894.405-1.254.077-.177-.079-.582-.449-1.255-1.064l-.807-.654c-.494-.451-1.098-.35-1.597.171-1.164 1.215-2.411 2.518-3.821 4.077-1.743 1.908-2.7 2.907-2.907 3.123l-1.081 1.129c-.711.652-1.293 1.26-1.75 1.739-.665.695-1.205 1.259-1.534 1.691-.082.17-.206.302-.331.433l.271.244c.225.205.408.454.813.825l1.439 1.31c.585.535 1.259 1.151 2.156 1.887l1.349 1.232c.359.327.379.834.048 1.182-.333.345-.853.361-1.211.033-.09-.082-.541-.494-1.392-1.188-.852-.697-1.525-1.31-2.11-1.845-.899-.819-1.575-1.435-2.028-1.93l-.404-.369c-.27-.247-.582-.45-.733-.995-.045-.041-.05-.123-.052-.209-.058-.379.101-.722.265-.98.12-.215.329-.431.578-.692.37-.474.911-1.038 1.617-1.777.458-.477 1.04-1.084 1.75-1.738l1.082-1.128c.041-.044 1.288-1.346 3.737-3.992 4.9-5.291 9.308-9.892 12.439-12.81.918-.871 1.673-1.484 2.304-1.965.676-.441 1.35-.883 1.918-.772.567.112 1.15.561 1.866 1.132l2.249 2.047zM75.537 51.887l.172-.326c.982-1.502 2.707-1.021 2.664.649-.006.094-.022.279-.081.419-.024.279-.1.605-.196 1.21-.216.886-.536 1.865-.967 3.032-1.237 2.851-1.565 3.924-1.909 5.785-.263 1.443-.712 1.682 1.088 1.233 4.237-1.047 7.531-1.66 9.976-1.842l.096-.001.149-.048c.095-.002.241-.051.389-.1.588-.196 1.5-.259 1.709.666.08.184.064.37-.003.603l-.117.281c-.052.048-.154.142-.267.33-.111.188-.37.424-.635.753-.847 1.035-1.416 1.554-5.164 5.33-2.497 2.549-4.887 4.908-7.113 7.033-6.178 6.091-10.913 10.859-15.021 15.568-.37.424-1.002.574-1.353.209-.403-.32-.496-.92-.083-1.299 4.065-4.755 8.902-9.615 15.177-15.708 3.066-3.065 5.404-5.381 7.064-6.987 1.827-1.932 2.919-3.019 3.229-3.301l.677-.708c.31-.283-.717-.544-1.974-.337-1.743.309-3.925.763-6.36 1.361l-1.021.249c-1.411.35-3.046-.231-2.526-2.32.532-2.979.8-3.912 2.127-7.274.179-.42.357-.84.424-1.074.476-1.122-1.133.437-2.164 1.382-.678.708-1.506 1.464-2.383 2.268-1.856 1.702-4.688 4.209-8.49 7.521-3.848 3.268-6.677 5.775-8.535 7.479-.414.377-.98.895-1.702 1.559-.767.615-1.334 1.138-1.748 1.515-.877.803-2.13 2.124-2.936 3.204-.318.377-.958.619-1.316.347-.404-.317-.592-.917-.223-1.34 1.085-1.597 2.324-2.731 4.689-4.813 1.18-.994 1.85-1.607 2.005-1.75 1.857-1.701 4.688-4.21 8.535-7.478 3.803-3.312 6.634-5.819 8.491-7.521 2.321-2.127 4.092-3.919 5.457-5.427l.059-.14.11-.192zM92.858 86.106c-7.762 7.441-12.209 10.771-15.875 12.614-2.414 1.231-4.393 1.595-5.934 1.175-2.058-.533-2.841-2.103-2.605-3.998.252-1.43 1.05-3.256 2.43-5.432 2.998-4.635 12.372-16.15 20.888-18.379 1.85-.41 4.311-.07 5.819.943 2.511 1.747 2.412 4.328.92 6.923-.531.95-1.613 2.461-5.643 6.154zm.997-3.129c1.335-1.33 2.404-2.589 3.081-3.826 1.198-2.016 1.201-3.628-.391-4.73-1.002-.733-2.948-.961-4.356-.611-7.851 1.963-16.806 12.949-19.801 17.585-1.239 1.972-2.022 3.543-2.174 4.724-.151 1.179.208 1.751 1.276 2.104 2.224.626 6.299-1.494 10.937-5.153 2.407-1.87 5.841-4.957 11.428-10.093zM95.627 96.276c-.688-.297-1.275-.152-1.808.39-7.616 7.374-11.847 11.488-12.647 12.302-.356.362-.902.373-1.272.025s-.382-.881-.026-1.241c2.049-2.079 4.942-4.927 8.638-8.5 7.037-6.874 9.803-9.232 15.934-16.089.887-.991.516-1.428-.31-1.765l-.185-.085c-1.143-.377-.543-2.075.604-1.694 3.429 1.215 6.125 4.177 7.147 7.568 1.301 3.655.424 7.353-2.979 9.723-2.062 1.458-4.549 1.903-7.424 1.296-.456-.079-.866-.205-1.279-.33-.774-.206-1.176.111-1.296.955-.318 2.134-1.589 4.509-3.76 7.166-.311.404-.888 1.079-1.73 2.027-1.687 1.895-2.129 2.436-3.101 3.872-.438.717-.835 1.392-1.003 2.014-.041.222-.081.446-.079.623l-.039.221c.274.173.55.257.91.25l.273-.006c1.224-.156 1.442 1.612.219 1.769-2.312.267-3.879-.854-3.023-3.444.426-1.426 1.705-3.266 2.549-4.302.442-.541 1.063-1.263 1.95-2.256.847-.945 1.375-1.579 1.643-1.938 2.306-2.703 3.486-4.897 3.351-7.109-.013-.711-.384-1.059-1.071-1.354l-.186-.088zm12.064-.853c2.597-1.824 3.266-4.673 2.296-7.668-.438-1.454-1.146-2.639-2.074-3.684-.604-.652-1.282-.595-1.815.036-2.489 2.707-5.468 5.824-8.986 9.217-.668.676-.516 1.428.398 1.765 4.17 1.735 7.178 2.385 10.181.334zM120.114 97.255l-.129.041c-.046.042-.306.126-.74.464l-.349.253c-1.522 1.141-3.179 3-5.314 5.406-1.875 2.073-1.656 2.031-3.526 3.678-.914.803-.7 1.186-.094 1.782.519.509.995.977 1.387 1.271.39.299.43.85.127 1.229-.351.338-.914.379-1.261.041-.477-.383-.951-.851-1.559-1.445-.562-.555-.865-.851-1.779-.049-4.483 3.929-7.923 7.181-10.146 9.674-.697.76-1.179 1.396-1.482 1.86l-.174.254c-.002.084.349-.168.478-.298-.436.423-.565.889-.178 1.441.779 1.106 2.209 2.169 3.551 3.317.691.594 1.169 1.063 1.472 1.36.347.339.345.847-.004 1.184-.349.339-.869.337-1.217-.002-.562-.553-2.554-2.169-3.161-2.68-1.47-1.358-2.381-2.504-2.768-3.482-.302-.636.048-1.313.485-1.988.347-.592.872-1.271 1.656-2.116 2.482-2.747 6.358-6.336 9.363-8.997 1.479-1.352 2.741-2.407 3.785-3.337 2.003-1.771 1.743-1.604 3.702-3.844 2.136-2.41 3.922-4.396 5.534-5.619.997-.718 1.912-1.265 2.781-1.093.476.128 1.04.597 1.603 1.148.303.298.994.977 2.034 2.082 2.079 2.126 3.158 3.271 3.332 3.441.391.299.433.849.126 1.228-.172.17-.39.297-.608.256-.563.039-.779-.342-1.169-.728-.563-.551-1.603-1.571-2.986-3.016-1.039-1.104-1.688-1.74-1.948-1.997-.303-.298-.521-.511-.693-.596l-.131-.123z"/></svg>